<svg width="41" height="40" viewBox="0 0 41 40" fill="none" xmlns="http://www.w3.org/2000/svg">
<mask id="mask0_15968_1769" style="mask-type:alpha" maskUnits="userSpaceOnUse" x="8" y="8" width="25" height="24">
<rect x="8.43652" y="8" width="24" height="24" fill="#D9D9D9"/>
</mask>
<g mask="url(#mask0_15968_1769)">
<path d="M15.4365 22H25.4365C25.7199 22 25.9572 21.904 26.1485 21.712C26.3405 21.5207 26.4365 21.2833 26.4365 21C26.4365 20.7167 26.3405 20.479 26.1485 20.287C25.9572 20.0957 25.7199 20 25.4365 20H15.4365C15.1532 20 14.9155 20.0957 14.7235 20.287C14.5322 20.479 14.4365 20.7167 14.4365 21C14.4365 21.2833 14.5322 21.5207 14.7235 21.712C14.9155 21.904 15.1532 22 15.4365 22ZM15.4365 19H25.4365C25.7199 19 25.9572 18.904 26.1485 18.712C26.3405 18.5207 26.4365 18.2833 26.4365 18C26.4365 17.7167 26.3405 17.479 26.1485 17.287C25.9572 17.0957 25.7199 17 25.4365 17H15.4365C15.1532 17 14.9155 17.0957 14.7235 17.287C14.5322 17.479 14.4365 17.7167 14.4365 18C14.4365 18.2833 14.5322 18.5207 14.7235 18.712C14.9155 18.904 15.1532 19 15.4365 19ZM15.4365 16H25.4365C25.7199 16 25.9572 15.9043 26.1485 15.713C26.3405 15.521 26.4365 15.2833 26.4365 15C26.4365 14.7167 26.3405 14.479 26.1485 14.287C25.9572 14.0957 25.7199 14 25.4365 14H15.4365C15.1532 14 14.9155 14.0957 14.7235 14.287C14.5322 14.479 14.4365 14.7167 14.4365 15C14.4365 15.2833 14.5322 15.521 14.7235 15.713C14.9155 15.9043 15.1532 16 15.4365 16ZM28.7365 28.3L26.4365 26H12.4365C11.8865 26 11.4159 25.8043 11.0245 25.413C10.6325 25.021 10.4365 24.55 10.4365 24V12C10.4365 11.45 10.6325 10.979 11.0245 10.587C11.4159 10.1957 11.8865 10 12.4365 10H28.4365C28.9865 10 29.4575 10.1957 29.8495 10.587C30.2409 10.979 30.4365 11.45 30.4365 12V27.575C30.4365 28.025 30.2325 28.3373 29.8245 28.512C29.4159 28.6873 29.0532 28.6167 28.7365 28.3ZM12.4365 12V24H27.2615L28.4365 25.175V12H12.4365Z" fill="black"/>
</g>
</svg>
