<svg width="41" height="40" viewBox="0 0 41 40" fill="none" xmlns="http://www.w3.org/2000/svg">
<path d="M18.7742 10L20.4408 13.3333L22.1075 10H18.7742ZM24.7408 10.3333L24.5075 14.0667L27.6075 12L24.7408 10.3333ZM13.2742 12L16.4075 14.0667L16.1742 10.3333L13.2742 12Z" fill="#4AA9FF"/>
<path d="M16.5742 30H12.6409V25.7L17.2409 26.7666C16.1409 27.9333 16.5742 30 16.5742 30Z" fill="#EBA352"/>
<path d="M16.2075 30H11.8075C11.8075 30 11.8742 27.8667 11.1409 26.0333L16.6409 26.8333C16.0075 28.4667 16.2075 30 16.2075 30ZM15.7742 24.1333H17.4409V16.7333C17.4409 16.2333 17.0742 15.8333 16.6075 15.8333C16.1409 15.8333 15.7742 16.2333 15.7742 16.7667V24.1333ZM13.8075 24.1333H15.7742V16.1C15.7742 15.5 15.3409 15 14.7742 15C14.2409 15 13.7742 15.5 13.7742 16.1V24.1333H13.8075Z" fill="#FFDD67"/>
<path d="M12.1077 24.1333H13.841V16.5666C13.841 16.0333 13.441 15.6 12.9743 15.6C12.5077 15.6 12.1077 16.0333 12.1077 16.5666V24.1333ZM11.3077 16.7333C10.8743 16.7333 10.541 17.1333 10.541 17.6333V24.1333H12.1077V17.6333C12.1077 17.1333 11.741 16.7333 11.3077 16.7333Z" fill="#FFDD67"/>
<path d="M16.6077 15.8H16.441C16.841 15.8667 17.141 16.2667 17.141 16.7V24.1333H17.441V16.7333C17.441 16.2333 17.0743 15.8 16.6077 15.8ZM14.8077 15C14.741 15 14.7077 15 14.6743 15.0333C15.141 15.1 15.5077 15.5667 15.5077 16.1V21.4667L15.8077 21.8V16.1C15.7743 15.5 15.341 15 14.8077 15ZM12.9743 15.6H12.841C13.241 15.6667 13.541 16.0667 13.541 16.5333V21.4333L13.841 21.7667V16.5667C13.8077 16.0333 13.441 15.6 12.9743 15.6ZM11.3076 16.7333C11.241 16.7333 11.2076 16.7333 11.1743 16.7667C11.541 16.8333 11.8076 17.2 11.8076 17.6333V21.4667L12.1076 21.8V17.6333C12.1076 17.1333 11.741 16.7333 11.3076 16.7333Z" fill="#EBA352"/>
<path d="M20.2409 20.7334C19.7409 20.1667 18.7409 20.4334 18.0409 21.9001C17.5409 22.9001 17.4075 22.7001 17.1409 22.7667V21.8667C17.1409 21.8667 10.5075 21.4334 10.5075 22.4334C10.5075 22.4334 10.2075 24.9001 10.8409 26.4334C11.8075 28.7334 16.7409 29.3334 18.2742 25.4334C18.5742 24.6667 19.0075 23.8334 19.3409 23.0001C19.7742 22.0001 20.8075 21.4001 20.2409 20.7334Z" fill="#FFDD67"/>
<path d="M19.9075 20.5C20.9742 21.3 19.0075 22.8333 18.0742 25.2C16.7409 28.6 12.8409 28.6 11.2075 27.0333C12.7075 28.8 16.8742 29.1333 18.2742 25.4333C19.2075 23.0333 21.4742 21.2 19.9075 20.5Z" fill="#EBA352"/>
<path d="M17.4407 22.7333C16.1407 22.2666 13.4073 23.1666 13.774 25.7666C13.774 23.3333 15.9407 22.7666 17.1407 22.7666C17.3073 22.7666 17.4407 22.7333 17.4407 22.7333ZM24.3073 29.9999H28.2407V25.6999L23.6407 26.7666C24.7407 27.9333 24.3073 29.9999 24.3073 29.9999Z" fill="#EBA352"/>
<path d="M24.6743 30H29.0743C29.0743 30 29.0076 27.8667 29.7409 26.0333L24.2409 26.8333C24.8743 28.4667 24.6743 30 24.6743 30ZM25.1076 24.1333H23.4409V16.7333C23.4409 16.2333 23.8076 15.8333 24.2743 15.8333C24.7409 15.8333 25.1076 16.2333 25.1076 16.7667V24.1333ZM27.0743 24.1333H25.1076V16.1C25.1076 15.5 25.5409 15 26.1076 15C26.6409 15 27.1076 15.5 27.1076 16.1V24.1333H27.0743Z" fill="#FFDD67"/>
<path d="M28.7741 24.1333H27.0408V16.5666C27.0408 16.0333 27.4408 15.6 27.9074 15.6C28.3741 15.6 28.7741 16.0333 28.7741 16.5666V24.1333ZM29.5741 16.7333C30.0074 16.7333 30.3408 17.1333 30.3408 17.6333V24.1333H28.7741V17.6333C28.7741 17.1333 29.1408 16.7333 29.5741 16.7333Z" fill="#FFDD67"/>
<path d="M24.2743 15.8H24.4409C24.0409 15.8667 23.7409 16.2667 23.7409 16.7V24.1333H23.4409V16.7333C23.4409 16.2333 23.8076 15.8 24.2743 15.8ZM26.0743 15C26.1409 15 26.1743 15 26.2076 15.0333C25.7409 15.1 25.3743 15.5667 25.3743 16.1V21.4667L25.0743 21.8V16.1C25.1076 15.5 25.5409 15 26.0743 15ZM27.9076 15.6H28.0409C27.6409 15.6667 27.3409 16.0667 27.3409 16.5333V21.4333L27.0409 21.7667V16.5667C27.0743 16.0333 27.4409 15.6 27.9076 15.6ZM29.5743 16.7333C29.6409 16.7333 29.6743 16.7333 29.7076 16.7667C29.3409 16.8333 29.0743 17.2 29.0743 17.6333V21.4667L28.7743 21.8V17.6333C28.7743 17.1333 29.1409 16.7333 29.5743 16.7333Z" fill="#EBA352"/>
<path d="M20.6408 20.7334C21.1408 20.1667 22.1408 20.4334 22.8408 21.9001C23.3408 22.9001 23.4742 22.7001 23.7408 22.7667V21.8667C23.7408 21.8667 30.3742 21.4334 30.3742 22.4334C30.3742 22.4334 30.6742 24.9001 30.0408 26.4334C29.0742 28.7334 24.1408 29.3334 22.6075 25.4334C22.3075 24.6667 21.8742 23.8334 21.5408 23.0001C21.1075 22.0001 20.0742 21.4001 20.6408 20.7334Z" fill="#FFDD67"/>
<path d="M20.9742 20.5C19.9075 21.3 21.8742 22.8333 22.8075 25.2C24.1409 28.6 28.0409 28.6 29.6742 27.0333C28.1742 28.8 24.0075 29.1333 22.6075 25.4333C21.6742 23.0333 19.4075 21.2 20.9742 20.5Z" fill="#EBA352"/>
<path d="M23.4409 22.7333C24.7409 22.2666 27.4743 23.1666 27.1076 25.7666C27.1076 23.3333 24.9409 22.7666 23.7409 22.7666C23.5743 22.7666 23.4409 22.7333 23.4409 22.7333Z" fill="#EBA352"/>
</svg>
