<?xml version="1.0" encoding="UTF-8" standalone="no"?>
<!DOCTYPE svg PUBLIC "-//W3C//DTD SVG 1.1//EN"
 "http://www.w3.org/Graphics/SVG/1.1/DTD/svg11.dtd">
<!-- Generated by graphviz version 2.47.0 (20210316.0004)
 -->
<!-- Title: dependencies Pages: 1 -->
<svg width="6944pt" height="284pt"
 viewBox="0.00 0.00 6944.00 284.00" xmlns="http://www.w3.org/2000/svg" xmlns:xlink="http://www.w3.org/1999/xlink">
<g id="graph0" class="graph" transform="scale(1 1) rotate(0) translate(4 280)">
<title>dependencies</title>
<polygon fill="white" stroke="transparent" points="-4,4 -4,-280 6940,-280 6940,4 -4,4"/>
<text text-anchor="start" x="3447.01" y="-42.4" font-family="Times-12" font-weight="bold" font-size="14.00">Legend</text>
<polygon fill="#ffffb3" stroke="transparent" points="3234,-10 3234,-30 3254,-30 3254,-10 3234,-10"/>
<text text-anchor="start" x="3257.63" y="-15.4" font-family="Times-12" font-size="14.00"> &#160;Declarations</text>
<polygon fill="#8dd3c7" stroke="transparent" points="3347,-10 3347,-30 3367,-30 3367,-10 3347,-10"/>
<text text-anchor="start" x="3370.73" y="-15.4" font-family="Times-12" font-size="14.00"> &#160;Module</text>
<polygon fill="#80b1d3" stroke="transparent" points="3433,-10 3433,-30 3453,-30 3453,-10 3433,-10"/>
<text text-anchor="start" x="3456.78" y="-15.4" font-family="Times-12" font-size="14.00"> &#160;Bootstrap</text>
<polygon fill="#fdb462" stroke="transparent" points="3530,-10 3530,-30 3550,-30 3550,-10 3530,-10"/>
<text text-anchor="start" x="3553.67" y="-15.4" font-family="Times-12" font-size="14.00"> &#160;Providers</text>
<polygon fill="#fb8072" stroke="transparent" points="3626,-10 3626,-30 3646,-30 3646,-10 3626,-10"/>
<text text-anchor="start" x="3649.73" y="-15.4" font-family="Times-12" font-size="14.00"> &#160;Exports</text>
<g id="clust1" class="cluster">
<title>cluster_AppModule</title>
<polygon fill="none" stroke="black" stroke-dasharray="1,5" points="8,-70 8,-268 6928,-268 6928,-70 8,-70"/>
</g>
<g id="clust37" class="cluster">
<title>cluster_AppModule_imports</title>
<polygon fill="none" stroke="black" points="5520,-78 5520,-130 6920,-130 6920,-78 5520,-78"/>
</g>
<g id="clust39" class="cluster">
<title>cluster_AppModule_bootstrap</title>
<polygon fill="none" stroke="black" points="3172,-208 3172,-260 3296,-260 3296,-208 3172,-208"/>
</g>
<g id="clust2" class="cluster">
<title>cluster_AppModule_declarations</title>
<polygon fill="none" stroke="black" points="16,-78 16,-130 5512,-130 5512,-78 16,-78"/>
</g>
<!-- ActionHandlerComponent -->
<g id="node1" class="node">
<title>ActionHandlerComponent</title>
<polygon fill="#ffffb3" stroke="black" points="5504.02,-122 5339.98,-122 5339.98,-86 5504.02,-86 5504.02,-122"/>
<text text-anchor="middle" x="5422" y="-99.8" font-family="Times,serif" font-size="14.00">ActionHandlerComponent</text>
</g>
<!-- AppModule -->
<g id="node35" class="node">
<title>AppModule</title>
<polygon fill="#8dd3c7" stroke="black" points="3275.66,-187 3272.66,-191 3251.66,-191 3248.66,-187 3192.34,-187 3192.34,-151 3275.66,-151 3275.66,-187"/>
<text text-anchor="middle" x="3234" y="-164.8" font-family="Times,serif" font-size="14.00">AppModule</text>
</g>
<!-- ActionHandlerComponent&#45;&gt;AppModule -->
<g id="edge1" class="edge">
<title>ActionHandlerComponent&#45;&gt;AppModule</title>
<path fill="none" stroke="black" d="M5422,-122.28C5422,-143.32 5422,-175 5422,-175 5422,-175 3285.75,-175 3285.75,-175"/>
<polygon fill="black" stroke="black" points="3285.75,-171.5 3275.75,-175 3285.75,-178.5 3285.75,-171.5"/>
</g>
<!-- AddChannelDialogComponent -->
<g id="node2" class="node">
<title>AddChannelDialogComponent</title>
<polygon fill="#ffffb3" stroke="black" points="5322.2,-122 5131.8,-122 5131.8,-86 5322.2,-86 5322.2,-122"/>
<text text-anchor="middle" x="5227" y="-99.8" font-family="Times,serif" font-size="14.00">AddChannelDialogComponent</text>
</g>
<!-- AddChannelDialogComponent&#45;&gt;AppModule -->
<g id="edge2" class="edge">
<title>AddChannelDialogComponent&#45;&gt;AppModule</title>
<path fill="none" stroke="black" d="M5227,-122.03C5227,-142.77 5227,-174 5227,-174 5227,-174 3286.09,-174 3286.09,-174"/>
<polygon fill="black" stroke="black" points="3286.09,-170.5 3276.09,-174 3286.09,-177.5 3286.09,-170.5"/>
</g>
<!-- AddUserDialogComponent -->
<g id="node3" class="node">
<title>AddUserDialogComponent</title>
<polygon fill="#ffffb3" stroke="black" points="5113.97,-122 4944.03,-122 4944.03,-86 5113.97,-86 5113.97,-122"/>
<text text-anchor="middle" x="5029" y="-99.8" font-family="Times,serif" font-size="14.00">AddUserDialogComponent</text>
</g>
<!-- AddUserDialogComponent&#45;&gt;AppModule -->
<g id="edge3" class="edge">
<title>AddUserDialogComponent&#45;&gt;AppModule</title>
<path fill="none" stroke="black" d="M5029,-122.22C5029,-142.37 5029,-172 5029,-172 5029,-172 3285.73,-172 3285.73,-172"/>
<polygon fill="black" stroke="black" points="3285.73,-168.5 3275.73,-172 3285.73,-175.5 3285.73,-168.5"/>
</g>
<!-- AddreactionComponent -->
<g id="node4" class="node">
<title>AddreactionComponent</title>
<polygon fill="#ffffb3" stroke="black" points="4926.03,-122 4775.97,-122 4775.97,-86 4926.03,-86 4926.03,-122"/>
<text text-anchor="middle" x="4851" y="-99.8" font-family="Times,serif" font-size="14.00">AddreactionComponent</text>
</g>
<!-- AddreactionComponent&#45;&gt;AppModule -->
<g id="edge4" class="edge">
<title>AddreactionComponent&#45;&gt;AppModule</title>
<path fill="none" stroke="black" d="M4825.91,-122.11C4825.91,-141.34 4825.91,-169 4825.91,-169 4825.91,-169 3285.76,-169 3285.76,-169"/>
<polygon fill="black" stroke="black" points="3285.76,-165.5 3275.76,-169 3285.76,-172.5 3285.76,-165.5"/>
</g>
<!-- AddreactionComponent&#45;&gt;AppModule -->
<g id="edge5" class="edge">
<title>AddreactionComponent&#45;&gt;AppModule</title>
<path fill="none" stroke="black" d="M4876.09,-122.03C4876.09,-141.58 4876.09,-170 4876.09,-170 4876.09,-170 3285.83,-170 3285.83,-170"/>
<polygon fill="black" stroke="black" points="3285.83,-166.5 3275.83,-170 3285.83,-173.5 3285.83,-166.5"/>
</g>
<!-- AppComponent -->
<g id="node5" class="node">
<title>AppComponent</title>
<polygon fill="#ffffb3" stroke="black" points="4757.94,-122 4652.06,-122 4652.06,-86 4757.94,-86 4757.94,-122"/>
<text text-anchor="middle" x="4705" y="-99.8" font-family="Times,serif" font-size="14.00">AppComponent</text>
</g>
<!-- AppComponent&#45;&gt;AppModule -->
<g id="edge6" class="edge">
<title>AppComponent&#45;&gt;AppModule</title>
<path fill="none" stroke="black" d="M4705,-122.22C4705,-140.83 4705,-167 4705,-167 4705,-167 3286.05,-167 3286.05,-167"/>
<polygon fill="black" stroke="black" points="3286.05,-163.5 3276.05,-167 3286.05,-170.5 3286.05,-163.5"/>
</g>
<!-- AvatarChooseComponent -->
<g id="node6" class="node">
<title>AvatarChooseComponent</title>
<polygon fill="#ffffb3" stroke="black" points="4634.92,-122 4473.08,-122 4473.08,-86 4634.92,-86 4634.92,-122"/>
<text text-anchor="middle" x="4554" y="-99.8" font-family="Times,serif" font-size="14.00">AvatarChooseComponent</text>
</g>
<!-- AvatarChooseComponent&#45;&gt;AppModule -->
<g id="edge7" class="edge">
<title>AvatarChooseComponent&#45;&gt;AppModule</title>
<path fill="none" stroke="black" d="M4554,-122.3C4554,-140.27 4554,-165 4554,-165 4554,-165 3285.69,-165 3285.69,-165"/>
<polygon fill="black" stroke="black" points="3285.69,-161.5 3275.69,-165 3285.69,-168.5 3285.69,-161.5"/>
</g>
<!-- ChannelComponent -->
<g id="node7" class="node">
<title>ChannelComponent</title>
<polygon fill="#ffffb3" stroke="black" points="4454.99,-122 4327.01,-122 4327.01,-86 4454.99,-86 4454.99,-122"/>
<text text-anchor="middle" x="4391" y="-99.8" font-family="Times,serif" font-size="14.00">ChannelComponent</text>
</g>
<!-- ChannelComponent&#45;&gt;AppModule -->
<g id="edge8" class="edge">
<title>ChannelComponent&#45;&gt;AppModule</title>
<path fill="none" stroke="black" d="M4391,-122.02C4391,-139.37 4391,-163 4391,-163 4391,-163 3285.86,-163 3285.86,-163"/>
<polygon fill="black" stroke="black" points="3285.86,-159.5 3275.86,-163 3285.86,-166.5 3285.86,-159.5"/>
</g>
<!-- ChatComponent -->
<g id="node8" class="node">
<title>ChatComponent</title>
<polygon fill="#ffffb3" stroke="black" points="4308.77,-122 4201.23,-122 4201.23,-86 4308.77,-86 4308.77,-122"/>
<text text-anchor="middle" x="4255" y="-99.8" font-family="Times,serif" font-size="14.00">ChatComponent</text>
</g>
<!-- ChatComponent&#45;&gt;AppModule -->
<g id="edge9" class="edge">
<title>ChatComponent&#45;&gt;AppModule</title>
<path fill="none" stroke="black" d="M4255,-122.03C4255,-139.06 4255,-162 4255,-162 4255,-162 3285.93,-162 3285.93,-162"/>
<polygon fill="black" stroke="black" points="3285.93,-158.5 3275.93,-162 3285.93,-165.5 3285.93,-158.5"/>
</g>
<!-- ChatViewComponent -->
<g id="node9" class="node">
<title>ChatViewComponent</title>
<polygon fill="#ffffb3" stroke="black" points="4183.09,-122 4044.91,-122 4044.91,-86 4183.09,-86 4183.09,-122"/>
<text text-anchor="middle" x="4114" y="-99.8" font-family="Times,serif" font-size="14.00">ChatViewComponent</text>
</g>
<!-- ChatViewComponent&#45;&gt;AppModule -->
<g id="edge10" class="edge">
<title>ChatViewComponent&#45;&gt;AppModule</title>
<path fill="none" stroke="black" d="M4114,-122.03C4114,-138.4 4114,-160 4114,-160 4114,-160 3285.85,-160 3285.85,-160"/>
<polygon fill="black" stroke="black" points="3285.85,-156.5 3275.85,-160 3285.85,-163.5 3285.85,-156.5"/>
</g>
<!-- DateLineComponent -->
<g id="node10" class="node">
<title>DateLineComponent</title>
<polygon fill="#ffffb3" stroke="black" points="4026.92,-122 3893.08,-122 3893.08,-86 4026.92,-86 4026.92,-122"/>
<text text-anchor="middle" x="3960" y="-99.8" font-family="Times,serif" font-size="14.00">DateLineComponent</text>
</g>
<!-- DateLineComponent&#45;&gt;AppModule -->
<g id="edge11" class="edge">
<title>DateLineComponent&#45;&gt;AppModule</title>
<path fill="none" stroke="black" d="M3960,-122.28C3960,-137.95 3960,-158 3960,-158 3960,-158 3285.91,-158 3285.91,-158"/>
<polygon fill="black" stroke="black" points="3285.91,-154.5 3275.91,-158 3285.91,-161.5 3285.91,-154.5"/>
</g>
<!-- EditChannelComponent -->
<g id="node11" class="node">
<title>EditChannelComponent</title>
<polygon fill="#ffffb3" stroke="black" points="3875.82,-122 3724.18,-122 3724.18,-86 3875.82,-86 3875.82,-122"/>
<text text-anchor="middle" x="3800" y="-99.8" font-family="Times,serif" font-size="14.00">EditChannelComponent</text>
</g>
<!-- EditChannelComponent&#45;&gt;AppModule -->
<g id="edge12" class="edge">
<title>EditChannelComponent&#45;&gt;AppModule</title>
<path fill="none" stroke="black" d="M3800,-122.24C3800,-137.57 3800,-157 3800,-157 3800,-157 3286.08,-157 3286.08,-157"/>
<polygon fill="black" stroke="black" points="3286.08,-153.5 3276.08,-157 3286.08,-160.5 3286.08,-153.5"/>
</g>
<!-- EditChannelUsersComponent -->
<g id="node12" class="node">
<title>EditChannelUsersComponent</title>
<polygon fill="#ffffb3" stroke="black" points="3706.69,-122 3523.31,-122 3523.31,-86 3706.69,-86 3706.69,-122"/>
<text text-anchor="middle" x="3615" y="-99.8" font-family="Times,serif" font-size="14.00">EditChannelUsersComponent</text>
</g>
<!-- EditChannelUsersComponent&#45;&gt;AppModule -->
<g id="edge13" class="edge">
<title>EditChannelUsersComponent&#45;&gt;AppModule</title>
<path fill="none" stroke="black" d="M3615,-122.12C3615,-136.78 3615,-155 3615,-155 3615,-155 3285.86,-155 3285.86,-155"/>
<polygon fill="black" stroke="black" points="3285.86,-151.5 3275.86,-155 3285.86,-158.5 3285.86,-151.5"/>
</g>
<!-- EmptyWindowComponent -->
<g id="node13" class="node">
<title>EmptyWindowComponent</title>
<polygon fill="#ffffb3" stroke="black" points="3505.38,-122 3338.62,-122 3338.62,-86 3505.38,-86 3505.38,-122"/>
<text text-anchor="middle" x="3422" y="-99.8" font-family="Times,serif" font-size="14.00">EmptyWindowComponent</text>
</g>
<!-- EmptyWindowComponent&#45;&gt;AppModule -->
<g id="edge14" class="edge">
<title>EmptyWindowComponent&#45;&gt;AppModule</title>
<path fill="none" stroke="black" d="M3422,-122.25C3422,-136.18 3422,-153 3422,-153 3422,-153 3285.72,-153 3285.72,-153"/>
<polygon fill="black" stroke="black" points="3285.72,-149.5 3275.72,-153 3285.72,-156.5 3285.72,-149.5"/>
</g>
<!-- ForgotPasswordComponent -->
<g id="node14" class="node">
<title>ForgotPasswordComponent</title>
<polygon fill="#ffffb3" stroke="black" points="3320.32,-122 3147.68,-122 3147.68,-86 3320.32,-86 3320.32,-122"/>
<text text-anchor="middle" x="3234" y="-99.8" font-family="Times,serif" font-size="14.00">ForgotPasswordComponent</text>
</g>
<!-- ForgotPasswordComponent&#45;&gt;AppModule -->
<g id="edge15" class="edge">
<title>ForgotPasswordComponent&#45;&gt;AppModule</title>
<path fill="none" stroke="black" d="M3234,-122.11C3234,-122.11 3234,-140.99 3234,-140.99"/>
<polygon fill="black" stroke="black" points="3230.5,-140.99 3234,-150.99 3237.5,-140.99 3230.5,-140.99"/>
</g>
<!-- HeaderComponent -->
<g id="node15" class="node">
<title>HeaderComponent</title>
<polygon fill="#ffffb3" stroke="black" points="3129.74,-122 3008.26,-122 3008.26,-86 3129.74,-86 3129.74,-122"/>
<text text-anchor="middle" x="3069" y="-99.8" font-family="Times,serif" font-size="14.00">HeaderComponent</text>
</g>
<!-- HeaderComponent&#45;&gt;AppModule -->
<g id="edge16" class="edge">
<title>HeaderComponent&#45;&gt;AppModule</title>
<path fill="none" stroke="black" d="M3069,-122.25C3069,-136.18 3069,-153 3069,-153 3069,-153 3181.94,-153 3181.94,-153"/>
<polygon fill="black" stroke="black" points="3181.94,-156.5 3191.94,-153 3181.94,-149.5 3181.94,-156.5"/>
</g>
<!-- IfChangedDirective -->
<g id="node16" class="node">
<title>IfChangedDirective</title>
<polygon fill="#ffffb3" stroke="black" points="2990.67,-122 2863.33,-122 2863.33,-86 2990.67,-86 2990.67,-122"/>
<text text-anchor="middle" x="2927" y="-99.8" font-family="Times,serif" font-size="14.00">IfChangedDirective</text>
</g>
<!-- IfChangedDirective&#45;&gt;AppModule -->
<g id="edge17" class="edge">
<title>IfChangedDirective&#45;&gt;AppModule</title>
<path fill="none" stroke="black" d="M2927,-122.12C2927,-136.78 2927,-155 2927,-155 2927,-155 3182.28,-155 3182.28,-155"/>
<polygon fill="black" stroke="black" points="3182.28,-158.5 3192.28,-155 3182.28,-151.5 3182.28,-158.5"/>
</g>
<!-- ImprintComponent -->
<g id="node17" class="node">
<title>ImprintComponent</title>
<polygon fill="#ffffb3" stroke="black" points="2845.83,-122 2722.17,-122 2722.17,-86 2845.83,-86 2845.83,-122"/>
<text text-anchor="middle" x="2784" y="-99.8" font-family="Times,serif" font-size="14.00">ImprintComponent</text>
</g>
<!-- ImprintComponent&#45;&gt;AppModule -->
<g id="edge18" class="edge">
<title>ImprintComponent&#45;&gt;AppModule</title>
<path fill="none" stroke="black" d="M2784,-122.24C2784,-137.57 2784,-157 2784,-157 2784,-157 3182.07,-157 3182.07,-157"/>
<polygon fill="black" stroke="black" points="3182.07,-160.5 3192.07,-157 3182.07,-153.5 3182.07,-160.5"/>
</g>
<!-- IntroComponent -->
<g id="node18" class="node">
<title>IntroComponent</title>
<polygon fill="#ffffb3" stroke="black" points="2704.05,-122 2595.95,-122 2595.95,-86 2704.05,-86 2704.05,-122"/>
<text text-anchor="middle" x="2650" y="-99.8" font-family="Times,serif" font-size="14.00">IntroComponent</text>
</g>
<!-- IntroComponent&#45;&gt;AppModule -->
<g id="edge19" class="edge">
<title>IntroComponent&#45;&gt;AppModule</title>
<path fill="none" stroke="black" d="M2650,-122.28C2650,-137.95 2650,-158 2650,-158 2650,-158 3182,-158 3182,-158"/>
<polygon fill="black" stroke="black" points="3182,-161.5 3192,-158 3182,-154.5 3182,-161.5"/>
</g>
<!-- LoginComponent -->
<g id="node19" class="node">
<title>LoginComponent</title>
<polygon fill="#ffffb3" stroke="black" points="2577.28,-122 2462.72,-122 2462.72,-86 2577.28,-86 2577.28,-122"/>
<text text-anchor="middle" x="2520" y="-99.8" font-family="Times,serif" font-size="14.00">LoginComponent</text>
</g>
<!-- LoginComponent&#45;&gt;AppModule -->
<g id="edge20" class="edge">
<title>LoginComponent&#45;&gt;AppModule</title>
<path fill="none" stroke="black" d="M2520,-122.03C2520,-138.4 2520,-160 2520,-160 2520,-160 3182.26,-160 3182.26,-160"/>
<polygon fill="black" stroke="black" points="3182.26,-163.5 3192.26,-160 3182.26,-156.5 3182.26,-163.5"/>
</g>
<!-- MainscreenComponent -->
<g id="node20" class="node">
<title>MainscreenComponent</title>
<polygon fill="#ffffb3" stroke="black" points="2444.13,-122 2297.87,-122 2297.87,-86 2444.13,-86 2444.13,-122"/>
<text text-anchor="middle" x="2371" y="-99.8" font-family="Times,serif" font-size="14.00">MainscreenComponent</text>
</g>
<!-- MainscreenComponent&#45;&gt;AppModule -->
<g id="edge21" class="edge">
<title>MainscreenComponent&#45;&gt;AppModule</title>
<path fill="none" stroke="black" d="M2371,-122.03C2371,-139.06 2371,-162 2371,-162 2371,-162 3182.08,-162 3182.08,-162"/>
<polygon fill="black" stroke="black" points="3182.08,-165.5 3192.08,-162 3182.08,-158.5 3182.08,-165.5"/>
</g>
<!-- MessageComponent -->
<g id="node21" class="node">
<title>MessageComponent</title>
<polygon fill="#ffffb3" stroke="black" points="2280.31,-122 2149.69,-122 2149.69,-86 2280.31,-86 2280.31,-122"/>
<text text-anchor="middle" x="2215" y="-99.8" font-family="Times,serif" font-size="14.00">MessageComponent</text>
</g>
<!-- MessageComponent&#45;&gt;AppModule -->
<g id="edge22" class="edge">
<title>MessageComponent&#45;&gt;AppModule</title>
<path fill="none" stroke="black" d="M2215,-122.02C2215,-139.37 2215,-163 2215,-163 2215,-163 3182.15,-163 3182.15,-163"/>
<polygon fill="black" stroke="black" points="3182.15,-166.5 3192.15,-163 3182.15,-159.5 3182.15,-166.5"/>
</g>
<!-- MessageCreateComponent -->
<g id="node22" class="node">
<title>MessageCreateComponent</title>
<polygon fill="#ffffb3" stroke="black" points="2131.34,-122 1964.66,-122 1964.66,-86 2131.34,-86 2131.34,-122"/>
<text text-anchor="middle" x="2048" y="-99.8" font-family="Times,serif" font-size="14.00">MessageCreateComponent</text>
</g>
<!-- MessageCreateComponent&#45;&gt;AppModule -->
<g id="edge23" class="edge">
<title>MessageCreateComponent&#45;&gt;AppModule</title>
<path fill="none" stroke="black" d="M2048,-122.3C2048,-140.27 2048,-165 2048,-165 2048,-165 3182.14,-165 3182.14,-165"/>
<polygon fill="black" stroke="black" points="3182.14,-168.5 3192.14,-165 3182.14,-161.5 3182.14,-168.5"/>
</g>
<!-- MessageEditComponent -->
<g id="node23" class="node">
<title>MessageEditComponent</title>
<polygon fill="#ffffb3" stroke="black" points="1946.64,-122 1793.36,-122 1793.36,-86 1946.64,-86 1946.64,-122"/>
<text text-anchor="middle" x="1870" y="-99.8" font-family="Times,serif" font-size="14.00">MessageEditComponent</text>
</g>
<!-- MessageEditComponent&#45;&gt;AppModule -->
<g id="edge24" class="edge">
<title>MessageEditComponent&#45;&gt;AppModule</title>
<path fill="none" stroke="black" d="M1870,-122.22C1870,-140.83 1870,-167 1870,-167 1870,-167 3182.06,-167 3182.06,-167"/>
<polygon fill="black" stroke="black" points="3182.06,-170.5 3192.06,-167 3182.06,-163.5 3182.06,-170.5"/>
</g>
<!-- PrivacyPolicyComponent -->
<g id="node24" class="node">
<title>PrivacyPolicyComponent</title>
<polygon fill="#ffffb3" stroke="black" points="1774.87,-122 1615.13,-122 1615.13,-86 1774.87,-86 1774.87,-122"/>
<text text-anchor="middle" x="1695" y="-99.8" font-family="Times,serif" font-size="14.00">PrivacyPolicyComponent</text>
</g>
<!-- PrivacyPolicyComponent&#45;&gt;AppModule -->
<g id="edge25" class="edge">
<title>PrivacyPolicyComponent&#45;&gt;AppModule</title>
<path fill="none" stroke="black" d="M1695,-122.11C1695,-141.34 1695,-169 1695,-169 1695,-169 3182.04,-169 3182.04,-169"/>
<polygon fill="black" stroke="black" points="3182.04,-172.5 3192.04,-169 3182.04,-165.5 3182.04,-172.5"/>
</g>
<!-- ReactionComponent -->
<g id="node25" class="node">
<title>ReactionComponent</title>
<polygon fill="#ffffb3" stroke="black" points="1597.59,-122 1466.41,-122 1466.41,-86 1597.59,-86 1597.59,-122"/>
<text text-anchor="middle" x="1532" y="-99.8" font-family="Times,serif" font-size="14.00">ReactionComponent</text>
</g>
<!-- ReactionComponent&#45;&gt;AppModule -->
<g id="edge26" class="edge">
<title>ReactionComponent&#45;&gt;AppModule</title>
<path fill="none" stroke="black" d="M1532,-122.03C1532,-141.58 1532,-170 1532,-170 1532,-170 3181.93,-170 3181.93,-170"/>
<polygon fill="black" stroke="black" points="3181.93,-173.5 3191.93,-170 3181.93,-166.5 3181.93,-173.5"/>
</g>
<!-- RegisterComponent -->
<g id="node26" class="node">
<title>RegisterComponent</title>
<polygon fill="#ffffb3" stroke="black" points="1447.98,-122 1320.02,-122 1320.02,-86 1447.98,-86 1447.98,-122"/>
<text text-anchor="middle" x="1384" y="-99.8" font-family="Times,serif" font-size="14.00">RegisterComponent</text>
</g>
<!-- RegisterComponent&#45;&gt;AppModule -->
<g id="edge27" class="edge">
<title>RegisterComponent&#45;&gt;AppModule</title>
<path fill="none" stroke="black" d="M1384,-122.22C1384,-142.37 1384,-172 1384,-172 1384,-172 3182.33,-172 3182.33,-172"/>
<polygon fill="black" stroke="black" points="3182.33,-175.5 3192.33,-172 3182.33,-168.5 3182.33,-175.5"/>
</g>
<!-- ResetPasswordComponent -->
<g id="node27" class="node">
<title>ResetPasswordComponent</title>
<polygon fill="#ffffb3" stroke="black" points="1302.09,-122 1135.91,-122 1135.91,-86 1302.09,-86 1302.09,-122"/>
<text text-anchor="middle" x="1219" y="-99.8" font-family="Times,serif" font-size="14.00">ResetPasswordComponent</text>
</g>
<!-- ResetPasswordComponent&#45;&gt;AppModule -->
<g id="edge28" class="edge">
<title>ResetPasswordComponent&#45;&gt;AppModule</title>
<path fill="none" stroke="black" d="M1219,-122.03C1219,-142.77 1219,-174 1219,-174 1219,-174 3181.91,-174 3181.91,-174"/>
<polygon fill="black" stroke="black" points="3181.91,-177.5 3191.91,-174 3181.91,-170.5 3181.91,-177.5"/>
</g>
<!-- SearchbarComponent -->
<g id="node28" class="node">
<title>SearchbarComponent</title>
<polygon fill="#ffffb3" stroke="black" points="1117.79,-122 980.21,-122 980.21,-86 1117.79,-86 1117.79,-122"/>
<text text-anchor="middle" x="1049" y="-99.8" font-family="Times,serif" font-size="14.00">SearchbarComponent</text>
</g>
<!-- SearchbarComponent&#45;&gt;AppModule -->
<g id="edge29" class="edge">
<title>SearchbarComponent&#45;&gt;AppModule</title>
<path fill="none" stroke="black" d="M1049,-122.28C1049,-143.32 1049,-175 1049,-175 1049,-175 3182.3,-175 3182.3,-175"/>
<polygon fill="black" stroke="black" points="3182.3,-178.5 3192.3,-175 3182.3,-171.5 3182.3,-178.5"/>
</g>
<!-- ShowChannelUsersComponent -->
<g id="node29" class="node">
<title>ShowChannelUsersComponent</title>
<polygon fill="#ffffb3" stroke="black" points="961.75,-122 770.25,-122 770.25,-86 961.75,-86 961.75,-122"/>
<text text-anchor="middle" x="866" y="-99.8" font-family="Times,serif" font-size="14.00">ShowChannelUsersComponent</text>
</g>
<!-- ShowChannelUsersComponent&#45;&gt;AppModule -->
<g id="edge30" class="edge">
<title>ShowChannelUsersComponent&#45;&gt;AppModule</title>
<path fill="none" stroke="black" d="M866,-122.04C866,-143.66 866,-177 866,-177 866,-177 3182.15,-177 3182.15,-177"/>
<polygon fill="black" stroke="black" points="3182.15,-180.5 3192.15,-177 3182.15,-173.5 3182.15,-180.5"/>
</g>
<!-- SidenavComponent -->
<g id="node30" class="node">
<title>SidenavComponent</title>
<polygon fill="#ffffb3" stroke="black" points="752.44,-122 625.56,-122 625.56,-86 752.44,-86 752.44,-122"/>
<text text-anchor="middle" x="689" y="-99.8" font-family="Times,serif" font-size="14.00">SidenavComponent</text>
</g>
<!-- SidenavComponent&#45;&gt;AppModule -->
<g id="edge31" class="edge">
<title>SidenavComponent&#45;&gt;AppModule</title>
<path fill="none" stroke="black" d="M689,-122.16C689,-144.35 689,-179 689,-179 689,-179 3182.21,-179 3182.21,-179"/>
<polygon fill="black" stroke="black" points="3182.21,-182.5 3192.21,-179 3182.21,-175.5 3182.21,-182.5"/>
</g>
<!-- StartscreenComponent -->
<g id="node31" class="node">
<title>StartscreenComponent</title>
<polygon fill="#ffffb3" stroke="black" points="607.52,-122 464.48,-122 464.48,-86 607.52,-86 607.52,-122"/>
<text text-anchor="middle" x="536" y="-99.8" font-family="Times,serif" font-size="14.00">StartscreenComponent</text>
</g>
<!-- StartscreenComponent&#45;&gt;AppModule -->
<g id="edge32" class="edge">
<title>StartscreenComponent&#45;&gt;AppModule</title>
<path fill="none" stroke="black" d="M536,-122.25C536,-145.02 536,-181 536,-181 536,-181 3182.16,-181 3182.16,-181"/>
<polygon fill="black" stroke="black" points="3182.16,-184.5 3192.16,-181 3182.16,-177.5 3182.16,-184.5"/>
</g>
<!-- ThreadComponent -->
<g id="node32" class="node">
<title>ThreadComponent</title>
<polygon fill="#ffffb3" stroke="black" points="446.47,-122 325.53,-122 325.53,-86 446.47,-86 446.47,-122"/>
<text text-anchor="middle" x="386" y="-99.8" font-family="Times,serif" font-size="14.00">ThreadComponent</text>
</g>
<!-- ThreadComponent&#45;&gt;AppModule -->
<g id="edge33" class="edge">
<title>ThreadComponent&#45;&gt;AppModule</title>
<path fill="none" stroke="black" d="M386,-122.09C386,-145.13 386,-182 386,-182 386,-182 3182.09,-182 3182.09,-182"/>
<polygon fill="black" stroke="black" points="3182.09,-185.5 3192.09,-182 3182.09,-178.5 3182.09,-185.5"/>
</g>
<!-- ToolbarComponent -->
<g id="node33" class="node">
<title>ToolbarComponent</title>
<polygon fill="#ffffb3" stroke="black" points="307.65,-122 182.35,-122 182.35,-86 307.65,-86 307.65,-122"/>
<text text-anchor="middle" x="245" y="-99.8" font-family="Times,serif" font-size="14.00">ToolbarComponent</text>
</g>
<!-- ToolbarComponent&#45;&gt;AppModule -->
<g id="edge34" class="edge">
<title>ToolbarComponent&#45;&gt;AppModule</title>
<path fill="none" stroke="black" d="M245,-122.15C245,-145.76 245,-184 245,-184 245,-184 3182.32,-184 3182.32,-184"/>
<polygon fill="black" stroke="black" points="3182.32,-187.5 3192.32,-184 3182.32,-180.5 3182.32,-187.5"/>
</g>
<!-- UserProfilComponent -->
<g id="node34" class="node">
<title>UserProfilComponent</title>
<polygon fill="#ffffb3" stroke="black" points="163.64,-122 24.36,-122 24.36,-86 163.64,-86 163.64,-122"/>
<text text-anchor="middle" x="94" y="-99.8" font-family="Times,serif" font-size="14.00">UserProfilComponent</text>
</g>
<!-- UserProfilComponent&#45;&gt;AppModule -->
<g id="edge35" class="edge">
<title>UserProfilComponent&#45;&gt;AppModule</title>
<path fill="none" stroke="black" d="M94,-122.2C94,-146.36 94,-186 94,-186 94,-186 3182.28,-186 3182.28,-186"/>
<polygon fill="black" stroke="black" points="3182.28,-189.5 3192.28,-186 3182.28,-182.5 3182.28,-189.5"/>
</g>
<!-- AppComponent  -->
<g id="node42" class="node">
<title>AppComponent </title>
<polygon fill="#80b1d3" stroke="black" points="3288.44,-252 3179.56,-252 3179.56,-216 3288.44,-216 3288.44,-252"/>
<text text-anchor="middle" x="3234" y="-229.8" font-family="Times,serif" font-size="14.00">AppComponent </text>
</g>
<!-- AppModule&#45;&gt;AppComponent  -->
<g id="edge42" class="edge">
<title>AppModule&#45;&gt;AppComponent </title>
<path fill="none" stroke="black" stroke-dasharray="1,5" d="M3234,-187.11C3234,-187.11 3234,-205.99 3234,-205.99"/>
<polygon fill="black" stroke="black" points="3230.5,-205.99 3234,-215.99 3237.5,-205.99 3230.5,-205.99"/>
</g>
<!-- AppRoutingModule -->
<g id="node36" class="node">
<title>AppRoutingModule</title>
<polygon fill="#8dd3c7" stroke="black" points="6912.27,-122 6909.27,-126 6888.27,-126 6885.27,-122 6783.73,-122 6783.73,-86 6912.27,-86 6912.27,-122"/>
<text text-anchor="middle" x="6848" y="-99.8" font-family="Times,serif" font-size="14.00">AppRoutingModule</text>
</g>
<!-- AppRoutingModule&#45;&gt;AppModule -->
<g id="edge36" class="edge">
<title>AppRoutingModule&#45;&gt;AppModule</title>
<path fill="none" stroke="black" d="M6848,-122.2C6848,-146.36 6848,-186 6848,-186 6848,-186 3285.84,-186 3285.84,-186"/>
<polygon fill="black" stroke="black" points="3285.84,-182.5 3275.84,-186 3285.84,-189.5 3285.84,-182.5"/>
</g>
<!-- provideAuth(() =&gt; getAuth()) -->
<g id="node37" class="node">
<title>provideAuth(() =&gt; getAuth())</title>
<polygon fill="#8dd3c7" stroke="black" points="6765.12,-122 6762.12,-126 6741.12,-126 6738.12,-122 6582.88,-122 6582.88,-86 6765.12,-86 6765.12,-122"/>
<text text-anchor="middle" x="6674" y="-99.8" font-family="Times,serif" font-size="14.00">provideAuth(() =&gt; getAuth())</text>
</g>
<!-- provideAuth(() =&gt; getAuth())&#45;&gt;AppModule -->
<g id="edge37" class="edge">
<title>provideAuth(() =&gt; getAuth())&#45;&gt;AppModule</title>
<path fill="none" stroke="black" d="M6674,-122.15C6674,-145.76 6674,-184 6674,-184 6674,-184 3285.95,-184 3285.95,-184"/>
<polygon fill="black" stroke="black" points="3285.95,-180.5 3275.95,-184 3285.95,-187.5 3285.95,-180.5"/>
</g>
<!-- provideDatabase(() =&gt; getDatabase()) -->
<g id="node38" class="node">
<title>provideDatabase(() =&gt; getDatabase())</title>
<polygon fill="#8dd3c7" stroke="black" points="6564.72,-122 6561.72,-126 6540.72,-126 6537.72,-122 6335.28,-122 6335.28,-86 6564.72,-86 6564.72,-122"/>
<text text-anchor="middle" x="6450" y="-99.8" font-family="Times,serif" font-size="14.00">provideDatabase(() =&gt; getDatabase())</text>
</g>
<!-- provideDatabase(() =&gt; getDatabase())&#45;&gt;AppModule -->
<g id="edge38" class="edge">
<title>provideDatabase(() =&gt; getDatabase())&#45;&gt;AppModule</title>
<path fill="none" stroke="black" d="M6450,-122.09C6450,-145.13 6450,-182 6450,-182 6450,-182 3285.84,-182 3285.84,-182"/>
<polygon fill="black" stroke="black" points="3285.84,-178.5 3275.84,-182 3285.84,-185.5 3285.84,-178.5"/>
</g>
<!-- provideFirebaseApp(() =&gt; initializeApp(environment -->
<g id="node39" class="node">
<title>provideFirebaseApp(() =&gt; initializeApp(environment</title>
<polygon fill="#8dd3c7" stroke="black" points="6317.58,-122 6314.58,-126 6293.58,-126 6290.58,-122 6002.42,-122 6002.42,-86 6317.58,-86 6317.58,-122"/>
<text text-anchor="middle" x="6160" y="-99.8" font-family="Times,serif" font-size="14.00">provideFirebaseApp(() =&gt; initializeApp(environment</text>
</g>
<!-- provideFirebaseApp(() =&gt; initializeApp(environment&#45;&gt;AppModule -->
<g id="edge39" class="edge">
<title>provideFirebaseApp(() =&gt; initializeApp(environment&#45;&gt;AppModule</title>
<path fill="none" stroke="black" d="M6160,-122.25C6160,-145.02 6160,-181 6160,-181 6160,-181 3285.93,-181 3285.93,-181"/>
<polygon fill="black" stroke="black" points="3285.93,-177.5 3275.93,-181 3285.92,-184.5 3285.93,-177.5"/>
</g>
<!-- provideFirestore(() =&gt; getFirestore()) -->
<g id="node40" class="node">
<title>provideFirestore(() =&gt; getFirestore())</title>
<polygon fill="#8dd3c7" stroke="black" points="5984.14,-122 5981.14,-126 5960.14,-126 5957.14,-122 5757.86,-122 5757.86,-86 5984.14,-86 5984.14,-122"/>
<text text-anchor="middle" x="5871" y="-99.8" font-family="Times,serif" font-size="14.00">provideFirestore(() =&gt; getFirestore())</text>
</g>
<!-- provideFirestore(() =&gt; getFirestore())&#45;&gt;AppModule -->
<g id="edge40" class="edge">
<title>provideFirestore(() =&gt; getFirestore())&#45;&gt;AppModule</title>
<path fill="none" stroke="black" d="M5871,-122.16C5871,-144.35 5871,-179 5871,-179 5871,-179 3285.69,-179 3285.69,-179"/>
<polygon fill="black" stroke="black" points="3285.69,-175.5 3275.69,-179 3285.69,-182.5 3285.69,-175.5"/>
</g>
<!-- provideStorage(() =&gt; getStorage()) -->
<g id="node41" class="node">
<title>provideStorage(() =&gt; getStorage())</title>
<polygon fill="#8dd3c7" stroke="black" points="5740.15,-122 5737.15,-126 5716.15,-126 5713.15,-122 5527.85,-122 5527.85,-86 5740.15,-86 5740.15,-122"/>
<text text-anchor="middle" x="5634" y="-99.8" font-family="Times,serif" font-size="14.00">provideStorage(() =&gt; getStorage())</text>
</g>
<!-- provideStorage(() =&gt; getStorage())&#45;&gt;AppModule -->
<g id="edge41" class="edge">
<title>provideStorage(() =&gt; getStorage())&#45;&gt;AppModule</title>
<path fill="none" stroke="black" d="M5634,-122.04C5634,-143.66 5634,-177 5634,-177 5634,-177 3285.91,-177 3285.91,-177"/>
<polygon fill="black" stroke="black" points="3285.91,-173.5 3275.91,-177 3285.91,-180.5 3285.91,-173.5"/>
</g>
</g>
</svg>
