<?xml version="1.0" encoding="UTF-8" standalone="no"?>
<!DOCTYPE svg PUBLIC "-//W3C//DTD SVG 1.1//EN"
 "http://www.w3.org/Graphics/SVG/1.1/DTD/svg11.dtd">
<!-- Generated by graphviz version 2.47.0 (20210316.0004)
 -->
<!-- Title: dependencies Pages: 1 -->
<svg width="6944pt" height="284pt"
 viewBox="0.00 0.00 6944.00 284.00" xmlns="http://www.w3.org/2000/svg" xmlns:xlink="http://www.w3.org/1999/xlink">
<g id="graph0" class="graph" transform="scale(1 1) rotate(0) translate(4 280)">
<title>dependencies</title>
<polygon fill="white" stroke="transparent" points="-4,4 -4,-280 6940,-280 6940,4 -4,4"/>
<text text-anchor="start" x="3447.01" y="-42.4" font-family="Times-12" font-weight="bold" font-size="14.00">Legend</text>
<polygon fill="#ffffb3" stroke="transparent" points="3234,-10 3234,-30 3254,-30 3254,-10 3234,-10"/>
<text text-anchor="start" x="3257.63" y="-15.4" font-family="Times-12" font-size="14.00"> &#160;Declarations</text>
<polygon fill="#8dd3c7" stroke="transparent" points="3347,-10 3347,-30 3367,-30 3367,-10 3347,-10"/>
<text text-anchor="start" x="3370.73" y="-15.4" font-family="Times-12" font-size="14.00"> &#160;Module</text>
<polygon fill="#80b1d3" stroke="transparent" points="3433,-10 3433,-30 3453,-30 3453,-10 3433,-10"/>
<text text-anchor="start" x="3456.78" y="-15.4" font-family="Times-12" font-size="14.00"> &#160;Bootstrap</text>
<polygon fill="#fdb462" stroke="transparent" points="3530,-10 3530,-30 3550,-30 3550,-10 3530,-10"/>
<text text-anchor="start" x="3553.67" y="-15.4" font-family="Times-12" font-size="14.00"> &#160;Providers</text>
<polygon fill="#fb8072" stroke="transparent" points="3626,-10 3626,-30 3646,-30 3646,-10 3626,-10"/>
<text text-anchor="start" x="3649.73" y="-15.4" font-family="Times-12" font-size="14.00"> &#160;Exports</text>
<g id="clust1" class="cluster">
<title>cluster_AppModule</title>
<polygon fill="none" stroke="black" stroke-dasharray="1,5" points="8,-70 8,-268 6928,-268 6928,-70 8,-70"/>
</g>
<g id="clust2" class="cluster">
<title>cluster_AppModule_declarations</title>
<polygon fill="none" stroke="black" points="1424,-78 1424,-130 6920,-130 6920,-78 1424,-78"/>
</g>
<g id="clust37" class="cluster">
<title>cluster_AppModule_imports</title>
<polygon fill="none" stroke="black" points="16,-78 16,-130 1416,-130 1416,-78 16,-78"/>
</g>
<g id="clust39" class="cluster">
<title>cluster_AppModule_bootstrap</title>
<polygon fill="none" stroke="black" points="3717,-208 3717,-260 3841,-260 3841,-208 3717,-208"/>
</g>
<!-- ActionHandlerComponent -->
<g id="node1" class="node">
<title>ActionHandlerComponent</title>
<polygon fill="#ffffb3" stroke="black" points="6912.02,-122 6747.98,-122 6747.98,-86 6912.02,-86 6912.02,-122"/>
<text text-anchor="middle" x="6830" y="-99.8" font-family="Times,serif" font-size="14.00">ActionHandlerComponent</text>
</g>
<!-- AppModule -->
<g id="node35" class="node">
<title>AppModule</title>
<polygon fill="#8dd3c7" stroke="black" points="3820.66,-187 3817.66,-191 3796.66,-191 3793.66,-187 3737.34,-187 3737.34,-151 3820.66,-151 3820.66,-187"/>
<text text-anchor="middle" x="3779" y="-164.8" font-family="Times,serif" font-size="14.00">AppModule</text>
</g>
<!-- ActionHandlerComponent&#45;&gt;AppModule -->
<g id="edge1" class="edge">
<title>ActionHandlerComponent&#45;&gt;AppModule</title>
<path fill="none" stroke="black" d="M6830,-122.2C6830,-146.36 6830,-186 6830,-186 6830,-186 3830.68,-186 3830.68,-186"/>
<polygon fill="black" stroke="black" points="3830.68,-182.5 3820.68,-186 3830.68,-189.5 3830.68,-182.5"/>
</g>
<!-- AddChannelDialogComponent -->
<g id="node2" class="node">
<title>AddChannelDialogComponent</title>
<polygon fill="#ffffb3" stroke="black" points="6730.2,-122 6539.8,-122 6539.8,-86 6730.2,-86 6730.2,-122"/>
<text text-anchor="middle" x="6635" y="-99.8" font-family="Times,serif" font-size="14.00">AddChannelDialogComponent</text>
</g>
<!-- AddChannelDialogComponent&#45;&gt;AppModule -->
<g id="edge2" class="edge">
<title>AddChannelDialogComponent&#45;&gt;AppModule</title>
<path fill="none" stroke="black" d="M6635,-122.15C6635,-145.76 6635,-184 6635,-184 6635,-184 3830.75,-184 3830.75,-184"/>
<polygon fill="black" stroke="black" points="3830.75,-180.5 3820.75,-184 3830.75,-187.5 3830.75,-180.5"/>
</g>
<!-- AddUserDialogComponent -->
<g id="node3" class="node">
<title>AddUserDialogComponent</title>
<polygon fill="#ffffb3" stroke="black" points="6521.97,-122 6352.03,-122 6352.03,-86 6521.97,-86 6521.97,-122"/>
<text text-anchor="middle" x="6437" y="-99.8" font-family="Times,serif" font-size="14.00">AddUserDialogComponent</text>
</g>
<!-- AddUserDialogComponent&#45;&gt;AppModule -->
<g id="edge3" class="edge">
<title>AddUserDialogComponent&#45;&gt;AppModule</title>
<path fill="none" stroke="black" d="M6437,-122.09C6437,-145.13 6437,-182 6437,-182 6437,-182 3830.75,-182 3830.75,-182"/>
<polygon fill="black" stroke="black" points="3830.75,-178.5 3820.75,-182 3830.75,-185.5 3830.75,-178.5"/>
</g>
<!-- AddreactionComponent -->
<g id="node4" class="node">
<title>AddreactionComponent</title>
<polygon fill="#ffffb3" stroke="black" points="6334.03,-122 6183.97,-122 6183.97,-86 6334.03,-86 6334.03,-122"/>
<text text-anchor="middle" x="6259" y="-99.8" font-family="Times,serif" font-size="14.00">AddreactionComponent</text>
</g>
<!-- AddreactionComponent&#45;&gt;AppModule -->
<g id="edge4" class="edge">
<title>AddreactionComponent&#45;&gt;AppModule</title>
<path fill="none" stroke="black" d="M6233.91,-122.16C6233.91,-144.35 6233.91,-179 6233.91,-179 6233.91,-179 3830.84,-179 3830.84,-179"/>
<polygon fill="black" stroke="black" points="3830.84,-175.5 3820.84,-179 3830.84,-182.5 3830.84,-175.5"/>
</g>
<!-- AddreactionComponent&#45;&gt;AppModule -->
<g id="edge5" class="edge">
<title>AddreactionComponent&#45;&gt;AppModule</title>
<path fill="none" stroke="black" d="M6284.09,-122.25C6284.09,-145.02 6284.09,-181 6284.09,-181 6284.09,-181 3830.91,-181 3830.91,-181"/>
<polygon fill="black" stroke="black" points="3830.91,-177.5 3820.91,-181 3830.91,-184.5 3830.91,-177.5"/>
</g>
<!-- AppComponent -->
<g id="node5" class="node">
<title>AppComponent</title>
<polygon fill="#ffffb3" stroke="black" points="6165.94,-122 6060.06,-122 6060.06,-86 6165.94,-86 6165.94,-122"/>
<text text-anchor="middle" x="6113" y="-99.8" font-family="Times,serif" font-size="14.00">AppComponent</text>
</g>
<!-- AppComponent&#45;&gt;AppModule -->
<g id="edge6" class="edge">
<title>AppComponent&#45;&gt;AppModule</title>
<path fill="none" stroke="black" d="M6113,-122.04C6113,-143.66 6113,-177 6113,-177 6113,-177 3831,-177 3831,-177"/>
<polygon fill="black" stroke="black" points="3831,-173.5 3821,-177 3831,-180.5 3831,-173.5"/>
</g>
<!-- AvatarChooseComponent -->
<g id="node6" class="node">
<title>AvatarChooseComponent</title>
<polygon fill="#ffffb3" stroke="black" points="6042.92,-122 5881.08,-122 5881.08,-86 6042.92,-86 6042.92,-122"/>
<text text-anchor="middle" x="5962" y="-99.8" font-family="Times,serif" font-size="14.00">AvatarChooseComponent</text>
</g>
<!-- AvatarChooseComponent&#45;&gt;AppModule -->
<g id="edge7" class="edge">
<title>AvatarChooseComponent&#45;&gt;AppModule</title>
<path fill="none" stroke="black" d="M5962,-122.28C5962,-143.32 5962,-175 5962,-175 5962,-175 3830.66,-175 3830.66,-175"/>
<polygon fill="black" stroke="black" points="3830.66,-171.5 3820.66,-175 3830.66,-178.5 3830.66,-171.5"/>
</g>
<!-- ChannelComponent -->
<g id="node7" class="node">
<title>ChannelComponent</title>
<polygon fill="#ffffb3" stroke="black" points="5862.99,-122 5735.01,-122 5735.01,-86 5862.99,-86 5862.99,-122"/>
<text text-anchor="middle" x="5799" y="-99.8" font-family="Times,serif" font-size="14.00">ChannelComponent</text>
</g>
<!-- ChannelComponent&#45;&gt;AppModule -->
<g id="edge8" class="edge">
<title>ChannelComponent&#45;&gt;AppModule</title>
<path fill="none" stroke="black" d="M5799,-122.03C5799,-142.77 5799,-174 5799,-174 5799,-174 3830.73,-174 3830.73,-174"/>
<polygon fill="black" stroke="black" points="3830.73,-170.5 3820.73,-174 3830.73,-177.5 3830.73,-170.5"/>
</g>
<!-- ChatComponent -->
<g id="node8" class="node">
<title>ChatComponent</title>
<polygon fill="#ffffb3" stroke="black" points="5716.77,-122 5609.23,-122 5609.23,-86 5716.77,-86 5716.77,-122"/>
<text text-anchor="middle" x="5663" y="-99.8" font-family="Times,serif" font-size="14.00">ChatComponent</text>
</g>
<!-- ChatComponent&#45;&gt;AppModule -->
<g id="edge9" class="edge">
<title>ChatComponent&#45;&gt;AppModule</title>
<path fill="none" stroke="black" d="M5663,-122.22C5663,-142.37 5663,-172 5663,-172 5663,-172 3830.99,-172 3830.99,-172"/>
<polygon fill="black" stroke="black" points="3830.99,-168.5 3820.99,-172 3830.99,-175.5 3830.99,-168.5"/>
</g>
<!-- ChatViewComponent -->
<g id="node9" class="node">
<title>ChatViewComponent</title>
<polygon fill="#ffffb3" stroke="black" points="5591.09,-122 5452.91,-122 5452.91,-86 5591.09,-86 5591.09,-122"/>
<text text-anchor="middle" x="5522" y="-99.8" font-family="Times,serif" font-size="14.00">ChatViewComponent</text>
</g>
<!-- ChatViewComponent&#45;&gt;AppModule -->
<g id="edge10" class="edge">
<title>ChatViewComponent&#45;&gt;AppModule</title>
<path fill="none" stroke="black" d="M5522,-122.03C5522,-141.58 5522,-170 5522,-170 5522,-170 3830.79,-170 3830.79,-170"/>
<polygon fill="black" stroke="black" points="3830.79,-166.5 3820.79,-170 3830.79,-173.5 3830.79,-166.5"/>
</g>
<!-- DateLineComponent -->
<g id="node10" class="node">
<title>DateLineComponent</title>
<polygon fill="#ffffb3" stroke="black" points="5434.92,-122 5301.08,-122 5301.08,-86 5434.92,-86 5434.92,-122"/>
<text text-anchor="middle" x="5368" y="-99.8" font-family="Times,serif" font-size="14.00">DateLineComponent</text>
</g>
<!-- DateLineComponent&#45;&gt;AppModule -->
<g id="edge11" class="edge">
<title>DateLineComponent&#45;&gt;AppModule</title>
<path fill="none" stroke="black" d="M5368,-122.11C5368,-141.34 5368,-169 5368,-169 5368,-169 3830.69,-169 3830.69,-169"/>
<polygon fill="black" stroke="black" points="3830.69,-165.5 3820.69,-169 3830.69,-172.5 3830.69,-165.5"/>
</g>
<!-- EditChannelComponent -->
<g id="node11" class="node">
<title>EditChannelComponent</title>
<polygon fill="#ffffb3" stroke="black" points="5283.82,-122 5132.18,-122 5132.18,-86 5283.82,-86 5283.82,-122"/>
<text text-anchor="middle" x="5208" y="-99.8" font-family="Times,serif" font-size="14.00">EditChannelComponent</text>
</g>
<!-- EditChannelComponent&#45;&gt;AppModule -->
<g id="edge12" class="edge">
<title>EditChannelComponent&#45;&gt;AppModule</title>
<path fill="none" stroke="black" d="M5208,-122.22C5208,-140.83 5208,-167 5208,-167 5208,-167 3830.99,-167 3830.99,-167"/>
<polygon fill="black" stroke="black" points="3830.99,-163.5 3820.99,-167 3830.99,-170.5 3830.99,-163.5"/>
</g>
<!-- EditChannelUsersComponent -->
<g id="node12" class="node">
<title>EditChannelUsersComponent</title>
<polygon fill="#ffffb3" stroke="black" points="5114.69,-122 4931.31,-122 4931.31,-86 5114.69,-86 5114.69,-122"/>
<text text-anchor="middle" x="5023" y="-99.8" font-family="Times,serif" font-size="14.00">EditChannelUsersComponent</text>
</g>
<!-- EditChannelUsersComponent&#45;&gt;AppModule -->
<g id="edge13" class="edge">
<title>EditChannelUsersComponent&#45;&gt;AppModule</title>
<path fill="none" stroke="black" d="M5023,-122.3C5023,-140.27 5023,-165 5023,-165 5023,-165 3830.75,-165 3830.75,-165"/>
<polygon fill="black" stroke="black" points="3830.75,-161.5 3820.75,-165 3830.75,-168.5 3830.75,-161.5"/>
</g>
<!-- EmptyWindowComponent -->
<g id="node13" class="node">
<title>EmptyWindowComponent</title>
<polygon fill="#ffffb3" stroke="black" points="4913.38,-122 4746.62,-122 4746.62,-86 4913.38,-86 4913.38,-122"/>
<text text-anchor="middle" x="4830" y="-99.8" font-family="Times,serif" font-size="14.00">EmptyWindowComponent</text>
</g>
<!-- EmptyWindowComponent&#45;&gt;AppModule -->
<g id="edge14" class="edge">
<title>EmptyWindowComponent&#45;&gt;AppModule</title>
<path fill="none" stroke="black" d="M4830,-122.02C4830,-139.37 4830,-163 4830,-163 4830,-163 3830.85,-163 3830.85,-163"/>
<polygon fill="black" stroke="black" points="3830.85,-159.5 3820.85,-163 3830.85,-166.5 3830.85,-159.5"/>
</g>
<!-- ForgotPasswordComponent -->
<g id="node14" class="node">
<title>ForgotPasswordComponent</title>
<polygon fill="#ffffb3" stroke="black" points="4728.32,-122 4555.68,-122 4555.68,-86 4728.32,-86 4728.32,-122"/>
<text text-anchor="middle" x="4642" y="-99.8" font-family="Times,serif" font-size="14.00">ForgotPasswordComponent</text>
</g>
<!-- ForgotPasswordComponent&#45;&gt;AppModule -->
<g id="edge15" class="edge">
<title>ForgotPasswordComponent&#45;&gt;AppModule</title>
<path fill="none" stroke="black" d="M4642,-122.03C4642,-139.06 4642,-162 4642,-162 4642,-162 3830.92,-162 3830.92,-162"/>
<polygon fill="black" stroke="black" points="3830.92,-158.5 3820.92,-162 3830.92,-165.5 3830.92,-158.5"/>
</g>
<!-- HeaderComponent -->
<g id="node15" class="node">
<title>HeaderComponent</title>
<polygon fill="#ffffb3" stroke="black" points="4537.74,-122 4416.26,-122 4416.26,-86 4537.74,-86 4537.74,-122"/>
<text text-anchor="middle" x="4477" y="-99.8" font-family="Times,serif" font-size="14.00">HeaderComponent</text>
</g>
<!-- HeaderComponent&#45;&gt;AppModule -->
<g id="edge16" class="edge">
<title>HeaderComponent&#45;&gt;AppModule</title>
<path fill="none" stroke="black" d="M4477,-122.03C4477,-138.4 4477,-160 4477,-160 4477,-160 3830.83,-160 3830.83,-160"/>
<polygon fill="black" stroke="black" points="3830.83,-156.5 3820.83,-160 3830.83,-163.5 3830.83,-156.5"/>
</g>
<!-- IfChangedDirective -->
<g id="node16" class="node">
<title>IfChangedDirective</title>
<polygon fill="#ffffb3" stroke="black" points="4398.67,-122 4271.33,-122 4271.33,-86 4398.67,-86 4398.67,-122"/>
<text text-anchor="middle" x="4335" y="-99.8" font-family="Times,serif" font-size="14.00">IfChangedDirective</text>
</g>
<!-- IfChangedDirective&#45;&gt;AppModule -->
<g id="edge17" class="edge">
<title>IfChangedDirective&#45;&gt;AppModule</title>
<path fill="none" stroke="black" d="M4335,-122.28C4335,-137.95 4335,-158 4335,-158 4335,-158 3830.79,-158 3830.79,-158"/>
<polygon fill="black" stroke="black" points="3830.79,-154.5 3820.79,-158 3830.79,-161.5 3830.79,-154.5"/>
</g>
<!-- ImprintComponent -->
<g id="node17" class="node">
<title>ImprintComponent</title>
<polygon fill="#ffffb3" stroke="black" points="4253.83,-122 4130.17,-122 4130.17,-86 4253.83,-86 4253.83,-122"/>
<text text-anchor="middle" x="4192" y="-99.8" font-family="Times,serif" font-size="14.00">ImprintComponent</text>
</g>
<!-- ImprintComponent&#45;&gt;AppModule -->
<g id="edge18" class="edge">
<title>ImprintComponent&#45;&gt;AppModule</title>
<path fill="none" stroke="black" d="M4192,-122.24C4192,-137.57 4192,-157 4192,-157 4192,-157 3830.87,-157 3830.87,-157"/>
<polygon fill="black" stroke="black" points="3830.87,-153.5 3820.87,-157 3830.87,-160.5 3830.87,-153.5"/>
</g>
<!-- IntroComponent -->
<g id="node18" class="node">
<title>IntroComponent</title>
<polygon fill="#ffffb3" stroke="black" points="4112.05,-122 4003.95,-122 4003.95,-86 4112.05,-86 4112.05,-122"/>
<text text-anchor="middle" x="4058" y="-99.8" font-family="Times,serif" font-size="14.00">IntroComponent</text>
</g>
<!-- IntroComponent&#45;&gt;AppModule -->
<g id="edge19" class="edge">
<title>IntroComponent&#45;&gt;AppModule</title>
<path fill="none" stroke="black" d="M4058,-122.12C4058,-136.78 4058,-155 4058,-155 4058,-155 3830.77,-155 3830.77,-155"/>
<polygon fill="black" stroke="black" points="3830.77,-151.5 3820.77,-155 3830.77,-158.5 3830.77,-151.5"/>
</g>
<!-- LoginComponent -->
<g id="node19" class="node">
<title>LoginComponent</title>
<polygon fill="#ffffb3" stroke="black" points="3985.28,-122 3870.72,-122 3870.72,-86 3985.28,-86 3985.28,-122"/>
<text text-anchor="middle" x="3928" y="-99.8" font-family="Times,serif" font-size="14.00">LoginComponent</text>
</g>
<!-- LoginComponent&#45;&gt;AppModule -->
<g id="edge20" class="edge">
<title>LoginComponent&#45;&gt;AppModule</title>
<path fill="none" stroke="black" d="M3928,-122.25C3928,-136.18 3928,-153 3928,-153 3928,-153 3830.9,-153 3830.9,-153"/>
<polygon fill="black" stroke="black" points="3830.9,-149.5 3820.9,-153 3830.9,-156.5 3830.9,-149.5"/>
</g>
<!-- MainscreenComponent -->
<g id="node20" class="node">
<title>MainscreenComponent</title>
<polygon fill="#ffffb3" stroke="black" points="3852.13,-122 3705.87,-122 3705.87,-86 3852.13,-86 3852.13,-122"/>
<text text-anchor="middle" x="3779" y="-99.8" font-family="Times,serif" font-size="14.00">MainscreenComponent</text>
</g>
<!-- MainscreenComponent&#45;&gt;AppModule -->
<g id="edge21" class="edge">
<title>MainscreenComponent&#45;&gt;AppModule</title>
<path fill="none" stroke="black" d="M3779,-122.11C3779,-122.11 3779,-140.99 3779,-140.99"/>
<polygon fill="black" stroke="black" points="3775.5,-140.99 3779,-150.99 3782.5,-140.99 3775.5,-140.99"/>
</g>
<!-- MessageComponent -->
<g id="node21" class="node">
<title>MessageComponent</title>
<polygon fill="#ffffb3" stroke="black" points="3688.31,-122 3557.69,-122 3557.69,-86 3688.31,-86 3688.31,-122"/>
<text text-anchor="middle" x="3623" y="-99.8" font-family="Times,serif" font-size="14.00">MessageComponent</text>
</g>
<!-- MessageComponent&#45;&gt;AppModule -->
<g id="edge22" class="edge">
<title>MessageComponent&#45;&gt;AppModule</title>
<path fill="none" stroke="black" d="M3623,-122.25C3623,-136.18 3623,-153 3623,-153 3623,-153 3727.19,-153 3727.19,-153"/>
<polygon fill="black" stroke="black" points="3727.19,-156.5 3737.19,-153 3727.19,-149.5 3727.19,-156.5"/>
</g>
<!-- MessageCreateComponent -->
<g id="node22" class="node">
<title>MessageCreateComponent</title>
<polygon fill="#ffffb3" stroke="black" points="3539.34,-122 3372.66,-122 3372.66,-86 3539.34,-86 3539.34,-122"/>
<text text-anchor="middle" x="3456" y="-99.8" font-family="Times,serif" font-size="14.00">MessageCreateComponent</text>
</g>
<!-- MessageCreateComponent&#45;&gt;AppModule -->
<g id="edge23" class="edge">
<title>MessageCreateComponent&#45;&gt;AppModule</title>
<path fill="none" stroke="black" d="M3456,-122.12C3456,-136.78 3456,-155 3456,-155 3456,-155 3727.1,-155 3727.1,-155"/>
<polygon fill="black" stroke="black" points="3727.1,-158.5 3737.1,-155 3727.1,-151.5 3727.1,-158.5"/>
</g>
<!-- MessageEditComponent -->
<g id="node23" class="node">
<title>MessageEditComponent</title>
<polygon fill="#ffffb3" stroke="black" points="3354.64,-122 3201.36,-122 3201.36,-86 3354.64,-86 3354.64,-122"/>
<text text-anchor="middle" x="3278" y="-99.8" font-family="Times,serif" font-size="14.00">MessageEditComponent</text>
</g>
<!-- MessageEditComponent&#45;&gt;AppModule -->
<g id="edge24" class="edge">
<title>MessageEditComponent&#45;&gt;AppModule</title>
<path fill="none" stroke="black" d="M3278,-122.24C3278,-137.57 3278,-157 3278,-157 3278,-157 3727.15,-157 3727.15,-157"/>
<polygon fill="black" stroke="black" points="3727.15,-160.5 3737.15,-157 3727.15,-153.5 3727.15,-160.5"/>
</g>
<!-- PrivacyPolicyComponent -->
<g id="node24" class="node">
<title>PrivacyPolicyComponent</title>
<polygon fill="#ffffb3" stroke="black" points="3182.87,-122 3023.13,-122 3023.13,-86 3182.87,-86 3182.87,-122"/>
<text text-anchor="middle" x="3103" y="-99.8" font-family="Times,serif" font-size="14.00">PrivacyPolicyComponent</text>
</g>
<!-- PrivacyPolicyComponent&#45;&gt;AppModule -->
<g id="edge25" class="edge">
<title>PrivacyPolicyComponent&#45;&gt;AppModule</title>
<path fill="none" stroke="black" d="M3103,-122.28C3103,-137.95 3103,-158 3103,-158 3103,-158 3727.22,-158 3727.22,-158"/>
<polygon fill="black" stroke="black" points="3727.22,-161.5 3737.22,-158 3727.22,-154.5 3727.22,-161.5"/>
</g>
<!-- ReactionComponent -->
<g id="node25" class="node">
<title>ReactionComponent</title>
<polygon fill="#ffffb3" stroke="black" points="3005.59,-122 2874.41,-122 2874.41,-86 3005.59,-86 3005.59,-122"/>
<text text-anchor="middle" x="2940" y="-99.8" font-family="Times,serif" font-size="14.00">ReactionComponent</text>
</g>
<!-- ReactionComponent&#45;&gt;AppModule -->
<g id="edge26" class="edge">
<title>ReactionComponent&#45;&gt;AppModule</title>
<path fill="none" stroke="black" d="M2940,-122.03C2940,-138.4 2940,-160 2940,-160 2940,-160 3727.11,-160 3727.11,-160"/>
<polygon fill="black" stroke="black" points="3727.11,-163.5 3737.11,-160 3727.11,-156.5 3727.11,-163.5"/>
</g>
<!-- RegisterComponent -->
<g id="node26" class="node">
<title>RegisterComponent</title>
<polygon fill="#ffffb3" stroke="black" points="2855.98,-122 2728.02,-122 2728.02,-86 2855.98,-86 2855.98,-122"/>
<text text-anchor="middle" x="2792" y="-99.8" font-family="Times,serif" font-size="14.00">RegisterComponent</text>
</g>
<!-- RegisterComponent&#45;&gt;AppModule -->
<g id="edge27" class="edge">
<title>RegisterComponent&#45;&gt;AppModule</title>
<path fill="none" stroke="black" d="M2792,-122.03C2792,-139.06 2792,-162 2792,-162 2792,-162 3727.22,-162 3727.22,-162"/>
<polygon fill="black" stroke="black" points="3727.22,-165.5 3737.22,-162 3727.22,-158.5 3727.22,-165.5"/>
</g>
<!-- ResetPasswordComponent -->
<g id="node27" class="node">
<title>ResetPasswordComponent</title>
<polygon fill="#ffffb3" stroke="black" points="2710.09,-122 2543.91,-122 2543.91,-86 2710.09,-86 2710.09,-122"/>
<text text-anchor="middle" x="2627" y="-99.8" font-family="Times,serif" font-size="14.00">ResetPasswordComponent</text>
</g>
<!-- ResetPasswordComponent&#45;&gt;AppModule -->
<g id="edge28" class="edge">
<title>ResetPasswordComponent&#45;&gt;AppModule</title>
<path fill="none" stroke="black" d="M2627,-122.02C2627,-139.37 2627,-163 2627,-163 2627,-163 3727.32,-163 3727.32,-163"/>
<polygon fill="black" stroke="black" points="3727.32,-166.5 3737.32,-163 3727.32,-159.5 3727.32,-166.5"/>
</g>
<!-- SearchbarComponent -->
<g id="node28" class="node">
<title>SearchbarComponent</title>
<polygon fill="#ffffb3" stroke="black" points="2525.79,-122 2388.21,-122 2388.21,-86 2525.79,-86 2525.79,-122"/>
<text text-anchor="middle" x="2457" y="-99.8" font-family="Times,serif" font-size="14.00">SearchbarComponent</text>
</g>
<!-- SearchbarComponent&#45;&gt;AppModule -->
<g id="edge29" class="edge">
<title>SearchbarComponent&#45;&gt;AppModule</title>
<path fill="none" stroke="black" d="M2457,-122.3C2457,-140.27 2457,-165 2457,-165 2457,-165 3727.25,-165 3727.25,-165"/>
<polygon fill="black" stroke="black" points="3727.25,-168.5 3737.25,-165 3727.25,-161.5 3727.25,-168.5"/>
</g>
<!-- ShowChannelUsersComponent -->
<g id="node29" class="node">
<title>ShowChannelUsersComponent</title>
<polygon fill="#ffffb3" stroke="black" points="2369.75,-122 2178.25,-122 2178.25,-86 2369.75,-86 2369.75,-122"/>
<text text-anchor="middle" x="2274" y="-99.8" font-family="Times,serif" font-size="14.00">ShowChannelUsersComponent</text>
</g>
<!-- ShowChannelUsersComponent&#45;&gt;AppModule -->
<g id="edge30" class="edge">
<title>ShowChannelUsersComponent&#45;&gt;AppModule</title>
<path fill="none" stroke="black" d="M2274,-122.22C2274,-140.83 2274,-167 2274,-167 2274,-167 3727.18,-167 3727.18,-167"/>
<polygon fill="black" stroke="black" points="3727.18,-170.5 3737.18,-167 3727.18,-163.5 3727.18,-170.5"/>
</g>
<!-- SidenavComponent -->
<g id="node30" class="node">
<title>SidenavComponent</title>
<polygon fill="#ffffb3" stroke="black" points="2160.44,-122 2033.56,-122 2033.56,-86 2160.44,-86 2160.44,-122"/>
<text text-anchor="middle" x="2097" y="-99.8" font-family="Times,serif" font-size="14.00">SidenavComponent</text>
</g>
<!-- SidenavComponent&#45;&gt;AppModule -->
<g id="edge31" class="edge">
<title>SidenavComponent&#45;&gt;AppModule</title>
<path fill="none" stroke="black" d="M2097,-122.11C2097,-141.34 2097,-169 2097,-169 2097,-169 3727,-169 3727,-169"/>
<polygon fill="black" stroke="black" points="3727,-172.5 3737,-169 3727,-165.5 3727,-172.5"/>
</g>
<!-- StartscreenComponent -->
<g id="node31" class="node">
<title>StartscreenComponent</title>
<polygon fill="#ffffb3" stroke="black" points="2015.52,-122 1872.48,-122 1872.48,-86 2015.52,-86 2015.52,-122"/>
<text text-anchor="middle" x="1944" y="-99.8" font-family="Times,serif" font-size="14.00">StartscreenComponent</text>
</g>
<!-- StartscreenComponent&#45;&gt;AppModule -->
<g id="edge32" class="edge">
<title>StartscreenComponent&#45;&gt;AppModule</title>
<path fill="none" stroke="black" d="M1944,-122.03C1944,-141.58 1944,-170 1944,-170 1944,-170 3727.23,-170 3727.23,-170"/>
<polygon fill="black" stroke="black" points="3727.23,-173.5 3737.23,-170 3727.23,-166.5 3727.23,-173.5"/>
</g>
<!-- ThreadComponent -->
<g id="node32" class="node">
<title>ThreadComponent</title>
<polygon fill="#ffffb3" stroke="black" points="1854.47,-122 1733.53,-122 1733.53,-86 1854.47,-86 1854.47,-122"/>
<text text-anchor="middle" x="1794" y="-99.8" font-family="Times,serif" font-size="14.00">ThreadComponent</text>
</g>
<!-- ThreadComponent&#45;&gt;AppModule -->
<g id="edge33" class="edge">
<title>ThreadComponent&#45;&gt;AppModule</title>
<path fill="none" stroke="black" d="M1794,-122.22C1794,-142.37 1794,-172 1794,-172 1794,-172 3727.08,-172 3727.08,-172"/>
<polygon fill="black" stroke="black" points="3727.08,-175.5 3737.08,-172 3727.08,-168.5 3727.08,-175.5"/>
</g>
<!-- ToolbarComponent -->
<g id="node33" class="node">
<title>ToolbarComponent</title>
<polygon fill="#ffffb3" stroke="black" points="1715.65,-122 1590.35,-122 1590.35,-86 1715.65,-86 1715.65,-122"/>
<text text-anchor="middle" x="1653" y="-99.8" font-family="Times,serif" font-size="14.00">ToolbarComponent</text>
</g>
<!-- ToolbarComponent&#45;&gt;AppModule -->
<g id="edge34" class="edge">
<title>ToolbarComponent&#45;&gt;AppModule</title>
<path fill="none" stroke="black" d="M1653,-122.03C1653,-142.77 1653,-174 1653,-174 1653,-174 3727.01,-174 3727.01,-174"/>
<polygon fill="black" stroke="black" points="3727.01,-177.5 3737.01,-174 3727.01,-170.5 3727.01,-177.5"/>
</g>
<!-- UserProfilComponent -->
<g id="node34" class="node">
<title>UserProfilComponent</title>
<polygon fill="#ffffb3" stroke="black" points="1571.64,-122 1432.36,-122 1432.36,-86 1571.64,-86 1571.64,-122"/>
<text text-anchor="middle" x="1502" y="-99.8" font-family="Times,serif" font-size="14.00">UserProfilComponent</text>
</g>
<!-- UserProfilComponent&#45;&gt;AppModule -->
<g id="edge35" class="edge">
<title>UserProfilComponent&#45;&gt;AppModule</title>
<path fill="none" stroke="black" d="M1502,-122.28C1502,-143.32 1502,-175 1502,-175 1502,-175 3727.04,-175 3727.04,-175"/>
<polygon fill="black" stroke="black" points="3727.04,-178.5 3737.04,-175 3727.04,-171.5 3727.04,-178.5"/>
</g>
<!-- AppComponent  -->
<g id="node42" class="node">
<title>AppComponent </title>
<polygon fill="#80b1d3" stroke="black" points="3833.44,-252 3724.56,-252 3724.56,-216 3833.44,-216 3833.44,-252"/>
<text text-anchor="middle" x="3779" y="-229.8" font-family="Times,serif" font-size="14.00">AppComponent </text>
</g>
<!-- AppModule&#45;&gt;AppComponent  -->
<g id="edge42" class="edge">
<title>AppModule&#45;&gt;AppComponent </title>
<path fill="none" stroke="black" stroke-dasharray="1,5" d="M3779,-187.11C3779,-187.11 3779,-205.99 3779,-205.99"/>
<polygon fill="black" stroke="black" points="3775.5,-205.99 3779,-215.99 3782.5,-205.99 3775.5,-205.99"/>
</g>
<!-- AppRoutingModule -->
<g id="node36" class="node">
<title>AppRoutingModule</title>
<polygon fill="#8dd3c7" stroke="black" points="1408.27,-122 1405.27,-126 1384.27,-126 1381.27,-122 1279.73,-122 1279.73,-86 1408.27,-86 1408.27,-122"/>
<text text-anchor="middle" x="1344" y="-99.8" font-family="Times,serif" font-size="14.00">AppRoutingModule</text>
</g>
<!-- AppRoutingModule&#45;&gt;AppModule -->
<g id="edge36" class="edge">
<title>AppRoutingModule&#45;&gt;AppModule</title>
<path fill="none" stroke="black" d="M1344,-122.04C1344,-143.66 1344,-177 1344,-177 1344,-177 3727.25,-177 3727.25,-177"/>
<polygon fill="black" stroke="black" points="3727.25,-180.5 3737.25,-177 3727.25,-173.5 3727.25,-180.5"/>
</g>
<!-- provideAuth(() =&gt; getAuth()) -->
<g id="node37" class="node">
<title>provideAuth(() =&gt; getAuth())</title>
<polygon fill="#8dd3c7" stroke="black" points="1261.12,-122 1258.12,-126 1237.12,-126 1234.12,-122 1078.88,-122 1078.88,-86 1261.12,-86 1261.12,-122"/>
<text text-anchor="middle" x="1170" y="-99.8" font-family="Times,serif" font-size="14.00">provideAuth(() =&gt; getAuth())</text>
</g>
<!-- provideAuth(() =&gt; getAuth())&#45;&gt;AppModule -->
<g id="edge37" class="edge">
<title>provideAuth(() =&gt; getAuth())&#45;&gt;AppModule</title>
<path fill="none" stroke="black" d="M1170,-122.16C1170,-144.35 1170,-179 1170,-179 1170,-179 3727.23,-179 3727.23,-179"/>
<polygon fill="black" stroke="black" points="3727.23,-182.5 3737.23,-179 3727.23,-175.5 3727.23,-182.5"/>
</g>
<!-- provideDatabase(() =&gt; getDatabase()) -->
<g id="node38" class="node">
<title>provideDatabase(() =&gt; getDatabase())</title>
<polygon fill="#8dd3c7" stroke="black" points="1060.72,-122 1057.72,-126 1036.72,-126 1033.72,-122 831.28,-122 831.28,-86 1060.72,-86 1060.72,-122"/>
<text text-anchor="middle" x="946" y="-99.8" font-family="Times,serif" font-size="14.00">provideDatabase(() =&gt; getDatabase())</text>
</g>
<!-- provideDatabase(() =&gt; getDatabase())&#45;&gt;AppModule -->
<g id="edge38" class="edge">
<title>provideDatabase(() =&gt; getDatabase())&#45;&gt;AppModule</title>
<path fill="none" stroke="black" d="M946,-122.25C946,-145.02 946,-181 946,-181 946,-181 3727.31,-181 3727.31,-181"/>
<polygon fill="black" stroke="black" points="3727.31,-184.5 3737.31,-181 3727.31,-177.5 3727.31,-184.5"/>
</g>
<!-- provideFirebaseApp(() =&gt; initializeApp(environment -->
<g id="node39" class="node">
<title>provideFirebaseApp(() =&gt; initializeApp(environment</title>
<polygon fill="#8dd3c7" stroke="black" points="813.58,-122 810.58,-126 789.58,-126 786.58,-122 498.42,-122 498.42,-86 813.58,-86 813.58,-122"/>
<text text-anchor="middle" x="656" y="-99.8" font-family="Times,serif" font-size="14.00">provideFirebaseApp(() =&gt; initializeApp(environment</text>
</g>
<!-- provideFirebaseApp(() =&gt; initializeApp(environment&#45;&gt;AppModule -->
<g id="edge39" class="edge">
<title>provideFirebaseApp(() =&gt; initializeApp(environment&#45;&gt;AppModule</title>
<path fill="none" stroke="black" d="M656,-122.09C656,-145.13 656,-182 656,-182 656,-182 3727.21,-182 3727.21,-182"/>
<polygon fill="black" stroke="black" points="3727.21,-185.5 3737.21,-182 3727.21,-178.5 3727.21,-185.5"/>
</g>
<!-- provideFirestore(() =&gt; getFirestore()) -->
<g id="node40" class="node">
<title>provideFirestore(() =&gt; getFirestore())</title>
<polygon fill="#8dd3c7" stroke="black" points="480.14,-122 477.14,-126 456.14,-126 453.14,-122 253.86,-122 253.86,-86 480.14,-86 480.14,-122"/>
<text text-anchor="middle" x="367" y="-99.8" font-family="Times,serif" font-size="14.00">provideFirestore(() =&gt; getFirestore())</text>
</g>
<!-- provideFirestore(() =&gt; getFirestore())&#45;&gt;AppModule -->
<g id="edge40" class="edge">
<title>provideFirestore(() =&gt; getFirestore())&#45;&gt;AppModule</title>
<path fill="none" stroke="black" d="M367,-122.15C367,-145.76 367,-184 367,-184 367,-184 3727.09,-184 3727.09,-184"/>
<polygon fill="black" stroke="black" points="3727.09,-187.5 3737.09,-184 3727.09,-180.5 3727.09,-187.5"/>
</g>
<!-- provideStorage(() =&gt; getStorage()) -->
<g id="node41" class="node">
<title>provideStorage(() =&gt; getStorage())</title>
<polygon fill="#8dd3c7" stroke="black" points="236.15,-122 233.15,-126 212.15,-126 209.15,-122 23.85,-122 23.85,-86 236.15,-86 236.15,-122"/>
<text text-anchor="middle" x="130" y="-99.8" font-family="Times,serif" font-size="14.00">provideStorage(() =&gt; getStorage())</text>
</g>
<!-- provideStorage(() =&gt; getStorage())&#45;&gt;AppModule -->
<g id="edge41" class="edge">
<title>provideStorage(() =&gt; getStorage())&#45;&gt;AppModule</title>
<path fill="none" stroke="black" d="M130,-122.2C130,-146.36 130,-186 130,-186 130,-186 3727.08,-186 3727.08,-186"/>
<polygon fill="black" stroke="black" points="3727.08,-189.5 3737.08,-186 3727.08,-182.5 3727.08,-189.5"/>
</g>
</g>
</svg>
